<svg width="767" height="604" viewBox="0 0 767 604" fill="none" xmlns="http://www.w3.org/2000/svg">
  <g opacity="0.36">
  <mask id="path-1-inside-1_2042_20113" fill="white">
  <path fill-rule="evenodd" clip-rule="evenodd" d="M282.54 519.72L603.701 604L489.888 445.574L542.231 361.41L381.332 361.41L282.54 519.72ZM406.048 321.804L566.863 321.804L766.997 -1.43942e-08L515.803 145.927L406.048 321.804ZM442.593 188.456L359.379 321.804L213.053 321.804L442.593 188.456ZM334.663 361.41L242.438 509.196L-0.00195312 445.574L144.875 361.41L334.663 361.41Z"/>
  </mask>
  <path fill-rule="evenodd" clip-rule="evenodd" d="M282.54 519.72L603.701 604L489.888 445.574L542.231 361.41L381.332 361.41L282.54 519.72ZM406.048 321.804L566.863 321.804L766.997 -1.43942e-08L515.803 145.927L406.048 321.804ZM442.593 188.456L359.379 321.804L213.053 321.804L442.593 188.456ZM334.663 361.41L242.438 509.196L-0.00195312 445.574L144.875 361.41L334.663 361.41Z" fill="url(#paint0_linear_2042_20113)"/>
  <path d="M603.701 604L603.193 605.934C604.009 606.149 604.871 605.828 605.349 605.133C605.827 604.438 605.817 603.518 605.325 602.833L603.701 604ZM282.54 519.72L280.844 518.661C280.507 519.2 280.447 519.867 280.682 520.458C280.916 521.049 281.418 521.493 282.033 521.654L282.54 519.72ZM489.888 445.574L488.19 444.518C487.762 445.205 487.791 446.083 488.264 446.741L489.888 445.574ZM542.231 361.41L543.929 362.466C544.313 361.85 544.332 361.074 543.979 360.439C543.626 359.804 542.957 359.41 542.231 359.41L542.231 361.41ZM381.332 361.41L381.332 359.41C380.642 359.41 380.001 359.766 379.635 360.351L381.332 361.41ZM406.048 321.804L404.352 320.745C403.967 321.361 403.947 322.138 404.299 322.774C404.652 323.409 405.322 323.804 406.048 323.804L406.048 321.804ZM566.863 321.804L566.863 323.804C567.554 323.804 568.196 323.447 568.561 322.86L566.863 321.804ZM766.997 -1.43942e-08L768.696 1.05623C769.181 0.276336 769.072 -0.733656 768.433 -1.39277C767.793 -2.05189 766.787 -2.1907 765.993 -1.72936L766.997 -1.43942e-08ZM515.803 145.927L514.798 144.197C514.517 144.361 514.279 144.591 514.106 144.868L515.803 145.927ZM359.379 321.804L359.379 323.804C360.069 323.804 360.71 323.448 361.076 322.862L359.379 321.804ZM442.593 188.456L444.29 189.515C444.777 188.736 444.669 187.725 444.03 187.065C443.39 186.405 442.383 186.265 441.589 186.727L442.593 188.456ZM213.053 321.804L212.048 320.074C211.266 320.528 210.886 321.451 211.122 322.324C211.357 323.197 212.149 323.804 213.053 323.804L213.053 321.804ZM242.438 509.196L241.931 511.13C242.778 511.353 243.671 510.998 244.135 510.255L242.438 509.196ZM334.663 361.41L336.36 362.469C336.744 361.852 336.764 361.076 336.412 360.44C336.059 359.805 335.39 359.41 334.663 359.41L334.663 361.41ZM-0.00195312 445.574L-1.00659 443.844C-1.70684 444.251 -2.09266 445.04 -1.9838 445.843C-1.87495 446.645 -1.29292 447.303 -0.509612 447.508L-0.00195312 445.574ZM144.875 361.41L144.875 359.41C144.522 359.41 144.176 359.504 143.87 359.681L144.875 361.41ZM604.208 602.066L283.048 517.785L282.033 521.654L603.193 605.934L604.208 602.066ZM488.264 446.741L602.076 605.167L605.325 602.833L491.512 444.407L488.264 446.741ZM540.532 360.354L488.19 444.518L491.586 446.63L543.929 362.466L540.532 360.354ZM381.332 363.41L542.231 363.41L542.231 359.41L381.332 359.41L381.332 363.41ZM379.635 360.351L280.844 518.661L284.237 520.779L383.029 362.469L379.635 360.351ZM406.048 323.804L566.863 323.804L566.863 319.804L406.048 319.804L406.048 323.804ZM568.561 322.86L768.696 1.05623L765.299 -1.05623L565.164 320.747L568.561 322.86ZM765.993 -1.72936L514.798 144.197L516.808 147.656L768.002 1.72936L765.993 -1.72936ZM514.106 144.868L404.352 320.745L407.745 322.862L517.5 146.985L514.106 144.868ZM361.076 322.862L444.29 189.515L440.897 187.397L357.682 320.745L361.076 322.862ZM213.053 323.804L359.379 323.804L359.379 319.804L213.053 319.804L213.053 323.804ZM441.589 186.727L212.048 320.074L214.057 323.533L443.598 190.186L441.589 186.727ZM244.135 510.255L336.36 362.469L332.966 360.351L240.742 508.137L244.135 510.255ZM242.946 507.261L0.505706 443.639L-0.509612 447.508L241.931 511.13L242.946 507.261ZM1.00269 447.303L145.88 363.14L143.87 359.681L-1.00659 443.844L1.00269 447.303ZM144.875 363.41L334.663 363.41L334.663 359.41L144.875 359.41L144.875 363.41Z" fill="url(#paint1_linear_2042_20113)" mask="url(#path-1-inside-1_2042_20113)"/>
  </g>
  <defs>
  <linearGradient id="paint0_linear_2042_20113" x1="126.037" y1="142.078" x2="604.427" y2="549.49" gradientUnits="userSpaceOnUse">
  <stop stop-color="#05060F" stop-opacity="0"/>
  <stop offset="1" stop-color="#F0F1F4" stop-opacity="0.12"/>
  </linearGradient>
  <linearGradient id="paint1_linear_2042_20113" x1="691.657" y1="386.087" x2="340.65" y2="96.1335" gradientUnits="userSpaceOnUse">
  <stop stop-color="white" stop-opacity="0.3"/>
  <stop offset="1" stop-color="white" stop-opacity="0"/>
  </linearGradient>
  </defs>
</svg>
